<mxfile host="app.diagrams.net" modified="2024-07-18T13:51:32.559Z" agent="Mozilla/5.0 (Windows NT 10.0; Win64; x64) AppleWebKit/537.36 (KHTML, like Gecko) Chrome/126.0.0.0 Safari/537.36" etag="ILZ8EYhW1_R3V9ySIjMe" version="24.7.1" type="device" pages="3">
  <diagram name="N1" id="COFwyiI3ozjty7LpkfsB">
    <mxGraphModel dx="1808" dy="652" grid="1" gridSize="10" guides="1" tooltips="1" connect="1" arrows="1" fold="1" page="1" pageScale="1" pageWidth="827" pageHeight="1169" math="0" shadow="0">
      <root>
        <mxCell id="0" />
        <mxCell id="1" parent="0" />
        <mxCell id="GQjELW8ep5slCsAtEW8S-1" value="Usuario" style="whiteSpace=wrap;html=1;aspect=fixed;" vertex="1" parent="1">
          <mxGeometry x="100" y="130" width="80" height="80" as="geometry" />
        </mxCell>
        <mxCell id="GQjELW8ep5slCsAtEW8S-2" value="Aplicaci贸n de Reserva de Vuelos" style="whiteSpace=wrap;html=1;aspect=fixed;" vertex="1" parent="1">
          <mxGeometry x="300" y="130" width="80" height="80" as="geometry" />
        </mxCell>
        <mxCell id="GQjELW8ep5slCsAtEW8S-3" value="Servicio de autenticaci贸n&lt;br&gt;(Identity)" style="whiteSpace=wrap;html=1;aspect=fixed;" vertex="1" parent="1">
          <mxGeometry x="100" y="250" width="80" height="80" as="geometry" />
        </mxCell>
        <mxCell id="GQjELW8ep5slCsAtEW8S-4" value="" style="endArrow=classic;startArrow=classic;html=1;rounded=0;exitX=1;exitY=0.5;exitDx=0;exitDy=0;entryX=0;entryY=0.5;entryDx=0;entryDy=0;" edge="1" parent="1" source="GQjELW8ep5slCsAtEW8S-1" target="GQjELW8ep5slCsAtEW8S-2">
          <mxGeometry width="50" height="50" relative="1" as="geometry">
            <mxPoint x="450" y="450" as="sourcePoint" />
            <mxPoint x="500" y="400" as="targetPoint" />
          </mxGeometry>
        </mxCell>
        <mxCell id="GQjELW8ep5slCsAtEW8S-5" value="" style="endArrow=classic;html=1;rounded=0;exitX=0.5;exitY=1;exitDx=0;exitDy=0;entryX=1;entryY=0.5;entryDx=0;entryDy=0;" edge="1" parent="1" source="GQjELW8ep5slCsAtEW8S-2" target="GQjELW8ep5slCsAtEW8S-3">
          <mxGeometry width="50" height="50" relative="1" as="geometry">
            <mxPoint x="450" y="450" as="sourcePoint" />
            <mxPoint x="500" y="400" as="targetPoint" />
            <Array as="points">
              <mxPoint x="340" y="290" />
            </Array>
          </mxGeometry>
        </mxCell>
        <mxCell id="GQjELW8ep5slCsAtEW8S-6" value="Diagrama de Contexto (Nivel 1)" style="text;html=1;align=center;verticalAlign=middle;whiteSpace=wrap;rounded=0;fontStyle=1;fontSize=14;" vertex="1" parent="1">
          <mxGeometry x="100" y="80" width="280" height="30" as="geometry" />
        </mxCell>
      </root>
    </mxGraphModel>
  </diagram>
  <diagram id="YFlpD0oa5Kz86ncDNRH0" name="N2">
    <mxGraphModel dx="1808" dy="652" grid="1" gridSize="10" guides="1" tooltips="1" connect="1" arrows="1" fold="1" page="1" pageScale="1" pageWidth="827" pageHeight="1169" math="0" shadow="0">
      <root>
        <mxCell id="0" />
        <mxCell id="1" parent="0" />
        <mxCell id="UsFJIPFv3FCn83U0_a6z-6" value="Diagrama de Contenedores (Nivel 2)" style="text;html=1;align=center;verticalAlign=middle;whiteSpace=wrap;rounded=0;fontStyle=1;fontSize=14;" vertex="1" parent="1">
          <mxGeometry x="100" y="20" width="280" height="30" as="geometry" />
        </mxCell>
        <mxCell id="UsFJIPFv3FCn83U0_a6z-8" value="" style="swimlane;startSize=0;" vertex="1" parent="1">
          <mxGeometry x="120" y="50" width="240" height="300" as="geometry" />
        </mxCell>
        <mxCell id="UsFJIPFv3FCn83U0_a6z-10" value="" style="swimlane;startSize=0;" vertex="1" parent="UsFJIPFv3FCn83U0_a6z-8">
          <mxGeometry x="20" y="40" width="200" height="80" as="geometry" />
        </mxCell>
        <mxCell id="UsFJIPFv3FCn83U0_a6z-12" value="&lt;span class=&quot;hljs-operator&quot;&gt;-&lt;/span&gt; AccountController&lt;div&gt;&lt;span class=&quot;hljs-operator&quot;&gt;-&lt;/span&gt; FlightController&lt;br&gt;&lt;span class=&quot;hljs-operator&quot;&gt;-&lt;/span&gt; AdminController&amp;nbsp;&lt;/div&gt;" style="text;html=1;align=left;verticalAlign=middle;resizable=0;points=[];autosize=1;strokeColor=none;fillColor=none;" vertex="1" parent="UsFJIPFv3FCn83U0_a6z-10">
          <mxGeometry x="35" y="20" width="130" height="60" as="geometry" />
        </mxCell>
        <mxCell id="UsFJIPFv3FCn83U0_a6z-11" value="Controladores" style="text;html=1;align=center;verticalAlign=middle;resizable=0;points=[];autosize=1;strokeColor=none;fillColor=none;" vertex="1" parent="UsFJIPFv3FCn83U0_a6z-10">
          <mxGeometry x="50" width="100" height="30" as="geometry" />
        </mxCell>
        <mxCell id="UsFJIPFv3FCn83U0_a6z-13" value="Aplicaci贸n Web&lt;br&gt;(ASP.NET Core MVC)" style="text;html=1;align=center;verticalAlign=middle;resizable=0;points=[];autosize=1;strokeColor=none;fillColor=none;" vertex="1" parent="UsFJIPFv3FCn83U0_a6z-8">
          <mxGeometry x="50" width="140" height="40" as="geometry" />
        </mxCell>
        <mxCell id="UsFJIPFv3FCn83U0_a6z-15" value="" style="swimlane;startSize=0;" vertex="1" parent="UsFJIPFv3FCn83U0_a6z-8">
          <mxGeometry x="20" y="130" width="200" height="70" as="geometry" />
        </mxCell>
        <mxCell id="UsFJIPFv3FCn83U0_a6z-16" value="Servicios" style="text;html=1;align=center;verticalAlign=middle;resizable=0;points=[];autosize=1;strokeColor=none;fillColor=none;" vertex="1" parent="UsFJIPFv3FCn83U0_a6z-15">
          <mxGeometry x="65" width="70" height="30" as="geometry" />
        </mxCell>
        <mxCell id="UsFJIPFv3FCn83U0_a6z-17" value="&lt;span class=&quot;hljs-operator&quot;&gt;-&lt;/span&gt; NotificationService&lt;br&gt;&lt;span class=&quot;hljs-operator&quot;&gt;-&lt;/span&gt; PaymentService" style="text;html=1;align=left;verticalAlign=middle;resizable=0;points=[];autosize=1;strokeColor=none;fillColor=none;" vertex="1" parent="UsFJIPFv3FCn83U0_a6z-15">
          <mxGeometry x="35" y="25" width="130" height="40" as="geometry" />
        </mxCell>
        <mxCell id="UsFJIPFv3FCn83U0_a6z-18" value="" style="swimlane;startSize=0;" vertex="1" parent="UsFJIPFv3FCn83U0_a6z-8">
          <mxGeometry x="20" y="210" width="200" height="80" as="geometry" />
        </mxCell>
        <mxCell id="UsFJIPFv3FCn83U0_a6z-19" value="Modelos" style="text;html=1;align=center;verticalAlign=middle;resizable=0;points=[];autosize=1;strokeColor=none;fillColor=none;" vertex="1" parent="UsFJIPFv3FCn83U0_a6z-18">
          <mxGeometry x="65" width="70" height="30" as="geometry" />
        </mxCell>
        <mxCell id="UsFJIPFv3FCn83U0_a6z-20" value="&lt;span class=&quot;hljs-operator&quot;&gt;-&lt;/span&gt; User&lt;br&gt;&lt;span class=&quot;hljs-operator&quot;&gt;-&lt;/span&gt; Flight&lt;br&gt;&lt;span class=&quot;hljs-operator&quot;&gt;-&lt;/span&gt; Booking" style="text;html=1;align=left;verticalAlign=middle;resizable=0;points=[];autosize=1;strokeColor=none;fillColor=none;" vertex="1" parent="UsFJIPFv3FCn83U0_a6z-18">
          <mxGeometry x="65" y="25" width="70" height="60" as="geometry" />
        </mxCell>
        <mxCell id="UsFJIPFv3FCn83U0_a6z-21" value="" style="swimlane;startSize=0;" vertex="1" parent="1">
          <mxGeometry x="120" y="360" width="240" height="40" as="geometry" />
        </mxCell>
        <mxCell id="UsFJIPFv3FCn83U0_a6z-22" value="Base de Datos&lt;br&gt;(&lt;span class=&quot;hljs-keyword&quot;&gt;SQL&lt;/span&gt; Server)&amp;nbsp;" style="text;html=1;align=center;verticalAlign=middle;resizable=0;points=[];autosize=1;strokeColor=none;fillColor=none;" vertex="1" parent="UsFJIPFv3FCn83U0_a6z-21">
          <mxGeometry x="70" width="100" height="40" as="geometry" />
        </mxCell>
        <mxCell id="UsFJIPFv3FCn83U0_a6z-23" value="" style="swimlane;startSize=0;" vertex="1" parent="1">
          <mxGeometry x="120" y="410" width="240" height="40" as="geometry" />
        </mxCell>
        <mxCell id="UsFJIPFv3FCn83U0_a6z-24" value="Servicio de Autenticaci贸n&lt;br&gt;(&lt;span class=&quot;hljs-keyword&quot;&gt;Identity&lt;/span&gt; Server)" style="text;html=1;align=center;verticalAlign=middle;resizable=0;points=[];autosize=1;strokeColor=none;fillColor=none;" vertex="1" parent="UsFJIPFv3FCn83U0_a6z-23">
          <mxGeometry x="40" width="160" height="40" as="geometry" />
        </mxCell>
        <mxCell id="UsFJIPFv3FCn83U0_a6z-25" value="" style="swimlane;startSize=0;" vertex="1" parent="1">
          <mxGeometry x="120" y="460" width="240" height="40" as="geometry" />
        </mxCell>
        <mxCell id="UsFJIPFv3FCn83U0_a6z-26" value="Servicio de Notificaciones&lt;br&gt;(Azure Notification Hubs)" style="text;html=1;align=center;verticalAlign=middle;resizable=0;points=[];autosize=1;strokeColor=none;fillColor=none;" vertex="1" parent="UsFJIPFv3FCn83U0_a6z-25">
          <mxGeometry x="40" width="160" height="40" as="geometry" />
        </mxCell>
        <mxCell id="UsFJIPFv3FCn83U0_a6z-27" value="" style="swimlane;startSize=0;" vertex="1" parent="1">
          <mxGeometry x="120" y="510" width="240" height="40" as="geometry" />
        </mxCell>
        <mxCell id="UsFJIPFv3FCn83U0_a6z-28" value="Servicio de Pagos&lt;br&gt;(Stripe API &lt;span class=&quot;hljs-operator&quot;&gt;-&lt;/span&gt; Mock)" style="text;html=1;align=center;verticalAlign=middle;resizable=0;points=[];autosize=1;strokeColor=none;fillColor=none;" vertex="1" parent="UsFJIPFv3FCn83U0_a6z-27">
          <mxGeometry x="60" width="120" height="40" as="geometry" />
        </mxCell>
      </root>
    </mxGraphModel>
  </diagram>
  <diagram id="HiiMgFurdqJLw7jYOTXP" name="N3">
    <mxGraphModel dx="1808" dy="652" grid="1" gridSize="10" guides="1" tooltips="1" connect="1" arrows="1" fold="1" page="1" pageScale="1" pageWidth="827" pageHeight="1169" math="0" shadow="0">
      <root>
        <mxCell id="0" />
        <mxCell id="1" parent="0" />
      </root>
    </mxGraphModel>
  </diagram>
</mxfile>
